#tb 0: 1/50
0,          0,          0,        1,    76032, 0x3ff06515
0,          1,          1,        1,    76032, 0x00d824da
0,          2,          2,        1,    76032, 0x64a33c64
0,          3,          3,        1,    76032, 0xeef328ed
0,          4,          4,        1,    76032, 0x4bb209cc
